<svg width="50" height="50" viewBox="0 0 50 50" fill="none" xmlns="http://www.w3.org/2000/svg">
<circle cx="25" cy="25" r="24" stroke="#F1F1F1" stroke-width="2"/>
<path d="M13.913 10C11.65 10 10.0064 11.3562 10.0064 13.2214C10.0064 15.0931 11.6891 16.509 13.913 16.509C16.1761 16.509 17.8197 15.1266 17.8197 13.1832C17.7154 11.3114 16.1043 10 13.913 10ZM10.6522 17.8197C10.2935 17.8197 10 18.1132 10 18.4719V37.3849C10 37.7436 10.2935 38.0371 10.6522 38.0371H17.1739C17.5326 38.0371 17.8261 37.7436 17.8261 37.3849V18.4719C17.8261 18.1132 17.5326 17.8197 17.1739 17.8197H10.6522ZM20.4348 17.8197C20.0761 17.8197 19.7826 18.1132 19.7826 18.4719V37.3849C19.7826 37.7436 20.0761 38.0371 20.4348 38.0371H26.3043C26.6643 38.0371 26.9565 37.7449 26.9565 37.3849V27.6023V27.4393V27.2762C26.9565 25.7306 28.1439 24.4716 29.6569 24.3542C29.7352 24.3412 29.813 24.3415 29.8913 24.3415C29.9696 24.3415 30.0474 24.3412 30.1257 24.3542C31.6387 24.4716 32.8261 25.7306 32.8261 27.2762V37.3849C32.8261 37.7449 33.1183 38.0371 33.4783 38.0371H39.3478C39.7065 38.0371 40 37.7436 40 37.3849V26.298C40 22.0784 37.7363 17.8197 32.6885 17.8197C30.3929 17.8197 28.6587 18.7068 27.6087 19.4438V18.4719C27.6087 18.1132 27.3152 17.8197 26.9565 17.8197H20.4348Z" fill="#F1F1F1"/>
</svg>
