<svg width="50" height="50" viewBox="0 0 50 50" fill="none" xmlns="http://www.w3.org/2000/svg">
<circle cx="25" cy="25" r="24" stroke="#F1F1F1" stroke-width="2"/>
<path d="M10 16.6445V15.875C10 15.3777 10.1975 14.9008 10.5492 14.5492C10.9008 14.1975 11.3777 14 11.875 14H38.125C38.6223 14 39.0992 14.1975 39.4508 14.5492C39.8025 14.9008 40 15.3777 40 15.875V16.6445L25 26.0195L10 16.6445ZM25.4969 27.9202C25.3478 28.0133 25.1757 28.0626 25 28.0626C24.8243 28.0626 24.6522 28.0133 24.5031 27.9202L10 18.8555V34.625C10 35.1223 10.1975 35.5992 10.5492 35.9508C10.9008 36.3025 11.3777 36.5 11.875 36.5H38.125C38.6223 36.5 39.0992 36.3025 39.4508 35.9508C39.8025 35.5992 40 35.1223 40 34.625V18.8555L25.4969 27.9202Z" fill="#F1F1F1"/>
</svg>
