<svg width="50" height="50" viewBox="0 0 50 50" fill="none" xmlns="http://www.w3.org/2000/svg">
<circle cx="25" cy="25" r="24" stroke="#F1F1F1" stroke-width="2"/>
<path d="M38.6914 28.5912L29.812 12.921C29.2798 11.9832 28.2796 11.4 27.2014 11.4H22C21.7858 11.4 21.5878 11.514 21.481 11.6994C21.3736 11.8854 21.373 12.1134 21.4798 12.2988L35.2798 36.2988C35.3872 36.486 35.5858 36.6 35.8 36.6C35.806 36.6 35.812 36.6 35.8174 36.6C36.0382 36.5934 36.2374 36.4656 36.3364 36.2682L38.7646 31.4118C39.2128 30.5166 39.1852 29.4624 38.6914 28.5912ZM26.704 26.0742L20.104 15.8742C19.993 15.7032 19.8034 15.6 19.6 15.6C19.5958 15.6 19.5916 15.6 19.5874 15.6C19.3792 15.6048 19.1884 15.7164 19.0828 15.8958L13.0828 26.0958C12.9736 26.2812 12.9724 26.511 13.0792 26.6976C13.186 26.8848 13.3852 27 13.6 27H26.2C26.4196 27 26.6218 26.88 26.7274 26.6868C26.8324 26.4936 26.8234 26.259 26.704 26.0742ZM32.1244 35.709L29.1244 30.309C29.0188 30.1182 28.8178 30 28.6 30H11.8C11.5876 30 11.3902 30.1128 11.2828 30.2958C11.1748 30.4788 11.1724 30.7056 11.2756 30.891L14.2756 36.291C14.3812 36.4818 14.5822 36.6 14.8 36.6H31.6C31.8124 36.6 32.0098 36.4872 32.1172 36.3042C32.2252 36.1212 32.2276 35.8944 32.1244 35.709Z" fill="#F1F1F1"/>
</svg>
