<svg width="32" height="32" viewBox="0 0 32 32" fill="none" xmlns="http://www.w3.org/2000/svg">
<path fill-rule="evenodd" clip-rule="evenodd" d="M3.42829 3.42835C5.30133 1.55531 8.10968 0.833374 11.75 0.833374H20.25C23.8903 0.833374 26.6986 1.55531 28.5717 3.42835C30.4447 5.30139 31.1666 8.10974 31.1666 11.75V20.25C31.1666 23.8903 30.4447 26.6987 28.5717 28.5717C26.6986 30.4448 23.8903 31.1667 20.25 31.1667H11.75C8.10968 31.1667 5.30133 30.4448 3.42829 28.5717C1.55525 26.6987 0.833313 23.8903 0.833313 20.25V11.75C0.833313 8.10974 1.55525 5.30139 3.42829 3.42835ZM4.8425 4.84256C3.52804 6.15702 2.83331 8.307 2.83331 11.75V20.25C2.83331 23.6931 3.52804 25.8431 4.8425 27.1575C6.15696 28.472 8.30694 29.1667 11.75 29.1667H20.25C23.693 29.1667 25.843 28.472 27.1575 27.1575C28.4719 25.8431 29.1666 23.6931 29.1666 20.25V11.75C29.1666 8.307 28.4719 6.15702 27.1575 4.84256C25.843 3.52811 23.693 2.83337 20.25 2.83337H11.75C8.30694 2.83337 6.15696 3.52811 4.8425 4.84256ZM17.125 9.62504C17.125 7.51442 18.8477 5.79171 20.9583 5.79171C23.0689 5.79171 24.7916 7.51442 24.7916 9.62504V22.375C24.7916 24.4857 23.0689 26.2084 20.9583 26.2084C18.8303 26.2084 17.125 24.4824 17.125 22.375V9.62504ZM20.9583 7.79171C19.9523 7.79171 19.125 8.61899 19.125 9.62504V22.375C19.125 23.3843 19.9414 24.2084 20.9583 24.2084C21.9644 24.2084 22.7916 23.3811 22.7916 22.375V9.62504C22.7916 8.61899 21.9644 7.79171 20.9583 7.79171ZM11.0416 13.5834C8.93103 13.5834 7.20831 15.3061 7.20831 17.4167V22.375C7.20831 24.4824 8.91361 26.2084 11.0416 26.2084C13.1523 26.2084 14.875 24.4857 14.875 22.375V17.4167C14.875 15.3061 13.1523 13.5834 11.0416 13.5834ZM9.20831 17.4167C9.20831 16.4107 10.0356 15.5834 11.0416 15.5834C12.0477 15.5834 12.875 16.4107 12.875 17.4167V22.375C12.875 23.3811 12.0477 24.2084 11.0416 24.2084C10.0247 24.2084 9.20831 23.3843 9.20831 22.375V17.4167Z" fill="#205A47" fill-opacity="0.75"/>
</svg>
