<svg width="32" height="32" viewBox="0 0 32 32" fill="none" xmlns="http://www.w3.org/2000/svg">
<path fill-rule="evenodd" clip-rule="evenodd" d="M3.42835 3.42829C5.30139 1.55525 8.10974 0.833313 11.75 0.833313H20.25C23.8903 0.833313 26.6987 1.55525 28.5717 3.42829C30.4448 5.30133 31.1667 8.10968 31.1667 11.75V20.25C31.1667 23.8903 30.4448 26.6986 28.5717 28.5717C26.6987 30.4447 23.8903 31.1666 20.25 31.1666H11.75C8.10974 31.1666 5.30139 30.4447 3.42835 28.5717C1.55531 26.6986 0.833374 23.8903 0.833374 20.25V11.75C0.833374 8.57354 1.38305 6.03054 2.76753 4.18964L3.42835 3.42829ZM3.89217 6.14123C3.19572 7.45129 2.83337 9.26343 2.83337 11.75V20.25C2.83337 23.693 3.52811 25.843 4.84256 27.1575C6.15702 28.4719 8.307 29.1666 11.75 29.1666H20.25C23.6931 29.1666 25.8431 28.4719 27.1575 27.1575C28.472 25.843 29.1667 23.693 29.1667 20.25V11.75C29.1667 8.30694 28.472 6.15696 27.1575 4.8425C25.8431 3.52804 23.6931 2.83331 20.25 2.83331H11.75C8.307 2.83331 6.15702 3.52804 4.84256 4.8425C4.4774 5.20766 4.16007 5.6373 3.89217 6.14123ZM7.21464 11.9067C6.98481 12.4436 6.83997 13.0286 6.83997 13.6058V18.4083C6.83997 19.2157 7.12007 20.041 7.52502 20.7301C7.92927 21.4179 8.51432 22.0659 9.22647 22.457L9.22944 22.4586L13.7555 24.9763L13.7562 24.9767C14.4248 25.3501 15.2415 25.5071 16.0017 25.5071C16.763 25.5071 17.5806 25.3497 18.2532 24.9793L18.2569 24.9772L22.7898 22.4558L22.7903 22.4556C23.493 22.065 24.077 21.4186 24.4826 20.7321C24.8883 20.0453 25.1741 19.2191 25.1741 18.4083V13.5917C25.1741 12.7842 24.8941 11.9589 24.4891 11.2699C24.0849 10.582 23.4999 9.93414 22.7878 9.543L18.2569 7.02272L18.2532 7.02068C17.5805 6.65017 16.7622 6.49254 15.999 6.49465C15.239 6.49676 14.4216 6.65763 13.752 7.03979L9.22434 9.5583L9.22421 9.55837L9.22387 9.55856C8.52109 9.94913 7.93708 10.5955 7.53149 11.282C7.4146 11.4799 7.30766 11.6894 7.21464 11.9067ZM8.83997 14.7271V18.4083C8.83997 18.7767 8.97779 19.2548 9.2493 19.7167C9.52095 20.179 9.86985 20.529 10.1905 20.7047L10.1961 20.7077L10.1961 20.7078L13.2726 22.4191L14.7294 23.2294L14.7311 23.2304C14.8098 23.2743 14.9 23.3145 15 23.3498V17.044L8.84522 13.4788C8.84172 13.5225 8.83997 13.5648 8.83997 13.6058V14.7271ZM17 17.0435V24.1743C17 24.4899 16.8539 24.7713 16.6256 24.9546C16.8539 24.7713 17 24.4899 17 24.1743V23.353C17.1062 23.3165 17.2025 23.2745 17.2867 23.2283L17.2884 23.2274L21.818 20.7078L21.8185 20.7075C22.1355 20.5314 22.4863 20.1791 22.7607 19.7148C23.035 19.2505 23.1741 18.7733 23.1741 18.4083V13.5917C23.1741 13.5512 23.1725 13.5093 23.1692 13.4664L17 17.0435ZM24.3166 11.645C24.5937 12.1228 24.4309 12.7347 23.9532 13.0118L23.9531 13.0118C24.4309 12.7347 24.5936 12.1228 24.3166 11.6451C24.1591 11.3734 23.8932 11.2035 23.6054 11.1585C23.8932 11.2035 24.1591 11.3733 24.3166 11.645ZM21.8236 11.2953C21.9776 11.3797 22.1382 11.5043 22.2935 11.6622L15.9996 15.3117L8.99281 11.253C8.79914 11.1409 8.58348 11.1009 8.37704 11.1249C8.5835 11.1009 8.79917 11.1408 8.99285 11.253L9.72549 11.6774C9.88181 11.5176 10.0427 11.3916 10.1956 11.3066L10.1961 11.3064L14.7294 8.78469L14.7295 8.78477L14.7408 8.77825C15.0334 8.61045 15.4883 8.49607 16.0045 8.49464C16.5189 8.49322 16.9821 8.60436 17.2868 8.7717L17.2884 8.77257L21.818 11.2922L21.818 11.2922L21.8236 11.2953Z" fill="#205A47" fill-opacity="0.75"/>
</svg>
