<svg width="33" height="32" viewBox="0 0 33 32" fill="none" xmlns="http://www.w3.org/2000/svg">
<path fill-rule="evenodd" clip-rule="evenodd" d="M25.5488 0.497893C27.1228 0.34781 28.7022 1.0161 30.2926 2.5611C31.8794 4.10249 32.5864 5.65293 32.4283 7.21808C32.2758 8.72672 31.3399 9.97662 30.2926 10.994L28.6527 12.5871C28.6479 12.5918 28.6431 12.5965 28.6383 12.6011L18.801 22.1573L18.7891 22.1686C18.4686 22.4699 18.0481 22.7347 17.6406 22.9336C17.2347 23.1318 16.7619 23.3037 16.3166 23.3655L11.9271 23.9747L11.9221 23.9754C10.8747 24.1154 9.87528 23.8388 9.1711 23.1575C8.46137 22.4708 8.16309 21.4799 8.32134 20.4286L8.32166 20.4265L8.94768 16.1695L8.94794 16.1677C9.01289 15.7177 9.19267 15.2476 9.39936 14.8481C9.60683 14.4471 9.88452 14.034 10.2032 13.7244L20.0299 4.17852C20.0414 4.16674 20.0533 4.15522 20.0655 4.14399L21.6949 2.5611C22.7468 1.53922 24.0236 0.643336 25.5488 0.497893ZM20.3416 6.66402L11.5968 15.159C11.478 15.2744 11.3182 15.4917 11.1757 15.7672C11.0327 16.0436 10.9501 16.2953 10.9274 16.4539L10.9269 16.4572L10.2998 20.7214L10.2992 20.7253C10.2249 21.2174 10.3714 21.536 10.5618 21.7201C10.7578 21.9098 11.114 22.0651 11.6549 21.9933L11.6571 21.993L16.0417 21.3845C16.2089 21.3613 16.4726 21.2782 16.7631 21.1364C17.0483 20.9972 17.2817 20.8392 17.4142 20.7161L26.098 12.2805C23.5382 11.1608 21.4839 9.16325 20.3416 6.66402ZM27.6752 10.7483C24.9536 9.82759 22.8295 7.76521 21.8869 5.16288L23.0885 3.99566C24.0199 3.09087 24.8869 2.57009 25.7387 2.48886C26.5418 2.41228 27.5728 2.70732 28.8991 3.99566C30.229 5.2876 30.5136 6.27299 30.4384 7.01701C30.3575 7.81754 29.8351 8.65014 28.8991 9.55943L27.6752 10.7483ZM3.58969 3.41817C5.50993 1.55279 8.38654 0.833364 12.125 0.833364H15.0417C15.594 0.833364 16.0417 1.28108 16.0417 1.83336C16.0417 2.38565 15.594 2.83336 15.0417 2.83336H12.125C8.57184 2.83336 6.34427 3.5306 4.98326 4.85273C3.62949 6.16783 2.91669 8.3133 2.91669 11.75V20.25C2.91669 23.6868 3.62949 25.8322 4.98326 27.1473C6.34427 28.4695 8.57184 29.1667 12.125 29.1667H20.875C24.4282 29.1667 26.6558 28.4695 28.0168 27.1473C29.3706 25.8322 30.0834 23.6868 30.0834 20.25V17.4167C30.0834 16.8644 30.5311 16.4167 31.0834 16.4167C31.6356 16.4167 32.0834 16.8644 32.0834 17.4167V20.25C32.0834 23.8966 31.3378 26.7095 29.4103 28.5819C27.4901 30.4473 24.6135 31.1667 20.875 31.1667H12.125C8.38654 31.1667 5.50993 30.4473 3.58969 28.5819C1.66222 26.7095 0.916687 23.8966 0.916687 20.25V11.75C0.916687 8.10343 1.66222 5.29057 3.58969 3.41817Z" fill="#205A47" fill-opacity="0.75"/>
</svg>
